<svg width="60" height="60" viewBox="0 0 60 60" fill="none" xmlns="http://www.w3.org/2000/svg">
<path d="M24.2929 34.2929C23.9024 34.6834 23.9024 35.3166 24.2929 35.7071C24.6834 36.0976 25.3166 36.0976 25.7071 35.7071L24.2929 34.2929ZM36.0002 24.9998C36.0002 24.4475 35.5525 23.9998 35.0002 23.9998L26.0002 23.9998C25.4479 23.9998 25.0002 24.4475 25.0002 24.9998C25.0002 25.5521 25.4479 25.9998 26.0002 25.9998L34.0002 25.9998L34.0002 33.9998C34.0002 34.5521 34.4479 34.9998 35.0002 34.9998C35.5525 34.9998 36.0002 34.5521 36.0002 33.9998L36.0002 24.9998ZM25.7071 35.7071L35.7073 25.7069L34.2931 24.2927L24.2929 34.2929L25.7071 35.7071Z" fill="black"/>
</svg>
