<svg width="59" height="59" viewBox="0 0 59 59" fill="none" xmlns="http://www.w3.org/2000/svg">
<rect x="0.333496" y="0.105225" width="58" height="58" rx="8" fill="#F6FAFF"/>
<path d="M16.8573 29.1204L22.9198 35.5241C23.2389 35.8612 23.3666 36.2993 23.2389 36.7375C23.1804 36.9415 23.0734 37.1263 22.928 37.2742C22.7826 37.4221 22.6038 37.5282 22.4085 37.5823C22.2133 37.6364 22.0082 37.6367 21.8128 37.5832C21.6175 37.5297 21.4383 37.4242 21.2925 37.2768L14.3685 29.9967C14.1502 29.7633 14.0278 29.4484 14.0278 29.1204C14.0278 28.7923 14.1502 28.4774 14.3685 28.244L21.2925 20.9302C21.4335 20.7743 21.6113 20.6609 21.8076 20.6016C22.0039 20.5424 22.2116 20.5395 22.4093 20.5932C22.6112 20.6477 22.7957 20.7577 22.9443 20.912C23.0929 21.0663 23.2002 21.2593 23.2553 21.4716C23.3103 21.6838 23.3113 21.9077 23.258 22.1204C23.2047 22.3331 23.099 22.5272 22.9518 22.6829L16.8573 29.0866V29.1204ZM41.8414 29.1204L35.7469 22.6829C35.5993 22.5339 35.4919 22.3461 35.4358 22.1388C35.3798 21.9314 35.377 21.7121 35.4278 21.5032C35.4795 21.29 35.5836 21.095 35.7297 20.9381C35.8757 20.7812 36.0585 20.6679 36.2594 20.6097C36.4603 20.5515 36.6723 20.5505 36.8737 20.6068C37.0751 20.6631 37.2588 20.7747 37.4062 20.9302L44.2983 28.244C44.5166 28.4774 44.6389 28.7923 44.6389 29.1204C44.6389 29.4484 44.5166 29.7633 44.2983 29.9967L37.4062 37.2768C37.2622 37.4386 37.079 37.5556 36.8764 37.615C36.6739 37.6744 36.4598 37.674 36.2575 37.6138C36.0643 37.552 35.8893 37.4389 35.7493 37.2854C35.6093 37.1318 35.5089 36.9429 35.4577 36.7367C35.4065 36.5305 35.4062 36.3138 35.4568 36.1074C35.5075 35.9011 35.6073 35.7118 35.7469 35.5578L41.8095 29.1204H41.8414ZM33.0666 21.9077L27.8337 37.1756C27.7659 37.3787 27.6468 37.5582 27.4894 37.6949C27.3319 37.8315 27.142 37.92 26.9403 37.9508C26.7406 37.9844 26.5362 37.9633 26.3465 37.8895C26.1568 37.8157 25.9882 37.6916 25.8569 37.5293C25.7256 37.3669 25.6359 37.1716 25.5966 36.9622C25.5572 36.7527 25.5694 36.5361 25.632 36.333L30.8331 21.0651C30.8983 20.8511 31.0201 20.6613 31.184 20.518C31.348 20.3747 31.5472 20.2839 31.7584 20.2562C31.9593 20.2265 32.164 20.252 32.3528 20.3302C32.5416 20.4084 32.7082 20.5366 32.8365 20.7026C32.9647 20.8685 33.0504 21.0666 33.0851 21.2777C33.1198 21.4888 33.1025 21.7057 33.0347 21.9077H33.0666Z" fill="url(#paint0_linear_1730_1907)" stroke="url(#paint1_linear_1730_1907)"/>
<defs>
<linearGradient id="paint0_linear_1730_1907" x1="45.7071" y1="38.9774" x2="13.4233" y2="37.8689" gradientUnits="userSpaceOnUse">
<stop stop-color="#1A93EA"/>
<stop offset="1" stop-color="#51B7FF"/>
</linearGradient>
<linearGradient id="paint1_linear_1730_1907" x1="45.7071" y1="38.9774" x2="13.4233" y2="37.8689" gradientUnits="userSpaceOnUse">
<stop stop-color="#1A93EA"/>
<stop offset="1" stop-color="#51B7FF"/>
</linearGradient>
</defs>
</svg>
