<svg width="20" height="21" viewBox="0 0 20 21" fill="none" xmlns="http://www.w3.org/2000/svg">
<g clip-path="url(#clip0_1817_3455)">
<g opacity="0.4">
<path d="M5.23234 17.0543C4.91363 17.0728 4.60018 16.9668 4.35808 16.7587C3.88064 16.2784 3.88064 15.5028 4.35808 15.0225L14.8124 4.56814C15.309 4.10348 16.0882 4.12931 16.5528 4.62589C16.973 5.07494 16.9975 5.76514 16.6102 6.24282L6.09427 16.7587C5.85532 16.9638 5.54687 17.0696 5.23234 17.0543Z" fill="black"/>
<path d="M15.6744 17.0543C15.3513 17.0529 15.0418 16.9246 14.8124 16.6972L4.35804 6.24278C3.91572 5.72625 3.97585 4.94891 4.49238 4.50655C4.95339 4.11175 5.6333 4.11175 6.09427 4.50655L16.6102 14.9609C17.1066 15.4257 17.1323 16.2049 16.6675 16.7014C16.649 16.7211 16.6299 16.7402 16.6102 16.7587C16.4828 16.8695 16.334 16.9529 16.173 17.0037C16.012 17.0546 15.8423 17.0718 15.6744 17.0543Z" fill="black"/>
</g>
</g>
<defs>
<clipPath id="clip0_1817_3455">
<rect width="13" height="13" fill="white" transform="translate(4 4.21045)"/>
</clipPath>
</defs>
</svg>
