<svg width="58" height="59" viewBox="0 0 58 59" fill="none" xmlns="http://www.w3.org/2000/svg">
<rect y="0.105225" width="58" height="58" rx="8" fill="#F6FAFF"/>
<path d="M30.8343 27.0919V19.9322C32.374 20.1908 33.8271 20.8192 35.0674 21.7628C35.3145 21.9315 35.6063 22.0235 35.9059 22.0272C36.8691 22.0272 37.6544 21.2563 37.6646 20.2983C37.6666 19.8874 37.5048 19.4925 37.2147 19.2C35.4205 17.672 33.1719 16.7717 30.8138 16.6372V14.237C30.8138 13.5516 30.2556 12.9963 29.5664 12.9963C29.5521 12.9943 29.5377 12.9943 29.5234 12.9943C28.824 12.9841 28.2473 13.5394 28.2371 14.237V16.5558C23.6358 16.8812 20.507 19.7085 20.507 23.4714C20.507 28.0885 24.4539 29.37 28.2371 30.3869V38.5229C26.2411 38.2564 24.3598 37.4327 22.8178 36.1432C22.5275 35.9133 22.1675 35.7852 21.7953 35.7771C20.8526 35.8421 20.1266 36.6272 20.1388 37.567C20.1368 37.9779 20.2986 38.3728 20.5887 38.6653C22.7006 40.5569 25.4169 41.6449 28.2575 41.7366V43.974C28.2575 43.9883 28.2595 44.0025 28.2595 44.0168C28.2922 44.7124 28.8873 45.2493 29.5867 45.2148C30.2759 45.2148 30.8341 44.6595 30.8341 43.974V41.696C36.417 41.3299 38.6665 37.9535 38.6665 34.3736C38.6666 29.5734 34.6175 28.1089 30.8343 27.0919ZM28.2576 26.441C26.0285 25.7901 24.2903 25.1189 24.2903 23.2273C24.2903 21.3357 25.865 19.9729 28.2576 19.7899V26.441ZM30.8343 38.5636V31.1599C33.1451 31.8107 34.9447 32.6853 34.9242 34.821C34.9242 36.3669 33.8608 38.1975 30.8343 38.5636Z" fill="url(#paint0_linear_1730_1823)"/>
<defs>
<linearGradient id="paint0_linear_1730_1823" x1="39.313" y1="47.0547" x2="19.7523" y2="46.8311" gradientUnits="userSpaceOnUse">
<stop stop-color="#1A93EA"/>
<stop offset="1" stop-color="#51B7FF"/>
</linearGradient>
</defs>
</svg>
