<svg width="782" height="424" viewBox="0 0 782 424" fill="none" xmlns="http://www.w3.org/2000/svg">
<g clip-path="url(#clip0_1948_6658)">
<path d="M772 0H10C4.47715 0 0 4.47714 0 9.99999V442C0 447.523 4.47713 452 9.99998 452H772C777.523 452 782 447.523 782 442V10C782 4.47715 777.523 0 772 0Z" fill="url(#paint0_linear_1948_6658)"/>
<path d="M0 16C0 10.3995 0 7.59921 1.08993 5.46009C2.04867 3.57847 3.57847 2.04867 5.46009 1.08993C7.59921 0 10.3995 0 16 0H766C771.601 0 774.401 0 776.54 1.08993C778.422 2.04867 779.951 3.57847 780.91 5.46009C782 7.59921 782 10.3995 782 16V30H0V16Z" fill="white"/>
<ellipse cx="16.2915" cy="14.9999" rx="3.25833" ry="3.21429" fill="#ED6B5D"/>
<ellipse cx="27.1529" cy="14.9999" rx="3.25833" ry="3.21429" fill="#F4BE50"/>
<ellipse cx="38.0142" cy="14.9999" rx="3.25833" ry="3.21429" fill="#61C554"/>
<path d="M60.4961 15.0001C60.4961 15.1235 60.5406 15.2321 60.6347 15.3259L64.5596 19.1525C64.6437 19.2413 64.7526 19.2858 64.8813 19.2858C65.1387 19.2858 65.3366 19.0932 65.3366 18.8365C65.3366 18.7081 65.2822 18.5995 65.203 18.5155L61.5998 15.0001L65.203 11.4846C65.2822 11.4007 65.3366 11.2871 65.3366 11.1637C65.3366 10.9069 65.1387 10.7144 64.8813 10.7144C64.7526 10.7144 64.6437 10.7588 64.5596 10.8427L60.6347 14.6742C60.5406 14.7631 60.4961 14.8766 60.4961 15.0001Z" fill="#2A9EF0"/>
<path d="M89.2312 15.0001C89.2312 14.8766 89.1817 14.7631 89.0876 14.6742L85.1677 10.8427C85.0786 10.7588 84.9697 10.7144 84.841 10.7144C84.5886 10.7144 84.3906 10.9069 84.3906 11.1637C84.3906 11.2871 84.4401 11.4007 84.5193 11.4846L88.1225 15.0001L84.5193 18.5155C84.4401 18.5995 84.3906 18.7081 84.3906 18.8365C84.3906 19.0932 84.5886 19.2858 84.841 19.2858C84.9697 19.2858 85.0786 19.2413 85.1677 19.1525L89.0876 15.3259C89.1817 15.2321 89.2312 15.1235 89.2312 15.0001Z" fill="#2A9EF0" fill-opacity="0.34"/>
<path d="M732.087 16.3122C732.252 16.3122 732.395 16.1755 732.395 16.016V12.1157L732.371 11.5461L732.629 11.8157L733.215 12.4309C733.268 12.4917 733.345 12.5221 733.422 12.5221C733.58 12.5221 733.704 12.4081 733.704 12.2524C733.704 12.1727 733.669 12.1119 733.611 12.0549L732.31 10.8169C732.233 10.7409 732.167 10.7144 732.087 10.7144C732.01 10.7144 731.944 10.7409 731.863 10.8169L730.562 12.0549C730.504 12.1119 730.474 12.1727 730.474 12.2524C730.474 12.4081 730.589 12.5221 730.751 12.5221C730.824 12.5221 730.909 12.4917 730.962 12.4309L731.544 11.8157L731.806 11.5461L731.782 12.1157V16.016C731.782 16.1755 731.921 16.3122 732.087 16.3122ZM729.881 19.2858H734.296C735.101 19.2858 735.505 18.8908 735.505 18.1085V14.3184C735.505 13.5361 735.101 13.1411 734.296 13.1411H733.222V13.7525H734.285C734.666 13.7525 734.885 13.9576 734.885 14.3526V18.0743C734.885 18.4693 734.666 18.6744 734.285 18.6744H729.888C729.503 18.6744 729.292 18.4693 729.292 18.0743V14.3526C729.292 13.9576 729.503 13.7525 729.888 13.7525H730.955V13.1411H729.881C729.076 13.1411 728.672 13.5361 728.672 14.3184V18.1085C728.672 18.8908 729.076 19.2858 729.881 19.2858Z" fill="#2A9EF0"/>
<path d="M755.934 15.0001C755.934 15.2546 756.149 15.4624 756.402 15.4624H759.809V18.8234C759.809 19.0728 760.02 19.2858 760.278 19.2858C760.536 19.2858 760.752 19.0728 760.752 18.8234V15.4624H764.154C764.407 15.4624 764.622 15.2546 764.622 15.0001C764.622 14.7455 764.407 14.5325 764.154 14.5325H760.752V11.1767C760.752 10.9273 760.536 10.7144 760.278 10.7144C760.02 10.7144 759.809 10.9273 759.809 11.1767V14.5325H756.402C756.149 14.5325 755.934 14.7455 755.934 15.0001Z" fill="#2A9EF0"/>
<path d="M799.426 423.541H0V452H799.426V423.541Z" fill="#F2F2F2"/>
<path d="M0 423.75H799.426" stroke="#E4E4E4" stroke-width="1.5" stroke-miterlimit="10"/>
<path d="M20 58.5911L22.5182 52.0002H23.4529L26.1377 58.5911H25.148L24.3831 56.5956H21.6409L20.921 58.5915L20 58.5911ZM21.8907 55.8841H24.1137L23.4313 54.0594C23.2228 53.505 23.0678 53.0493 22.9662 52.6925C22.8812 53.1207 22.763 53.5416 22.6127 53.9514L21.8907 55.8841Z" fill="#39A7F6"/>
<path d="M27.4701 58.5908H26.7206V52H27.5258V54.3512C27.6768 54.1478 27.8736 53.9833 28.1002 53.8714C28.3268 53.7595 28.5766 53.7033 28.8291 53.7076C29.1151 53.7063 29.3981 53.7668 29.6589 53.885C29.9101 53.997 30.1306 54.1687 30.3014 54.3851C30.4789 54.6174 30.613 54.8802 30.6969 55.1607C30.7949 55.4748 30.844 55.8024 30.8426 56.1316C30.8866 56.8179 30.671 57.4955 30.2389 58.0288C30.0606 58.2399 29.8384 58.4093 29.588 58.525C29.3376 58.6407 29.0651 58.6999 28.7895 58.6984C28.5276 58.7056 28.2684 58.6444 28.0371 58.5207C27.8058 58.397 27.6104 58.2151 27.4701 57.9928V58.5908ZM27.4613 56.1676C27.4308 56.5945 27.511 57.0221 27.6941 57.4085C27.7835 57.5822 27.9154 57.7302 28.0772 57.8388C28.2391 57.9473 28.4257 58.0129 28.6195 58.0292C28.8134 58.0456 29.0083 58.0123 29.1859 57.9325C29.3635 57.8526 29.5181 57.7288 29.6352 57.5726C29.9191 57.174 30.0551 56.6879 30.0195 56.199C30.0585 55.7097 29.9282 55.2218 29.6506 54.8179C29.5458 54.6798 29.4109 54.5678 29.2561 54.4907C29.1014 54.4135 28.931 54.3733 28.7583 54.373C28.5813 54.3745 28.4071 54.4168 28.2489 54.4966C28.0908 54.5764 27.9529 54.6916 27.846 54.8334C27.5646 55.2183 27.4289 55.691 27.4613 56.1676Z" fill="#39A7F6"/>
<path d="M31.5217 56.2036C31.4923 55.842 31.5428 55.4784 31.6697 55.1388C31.7965 54.7991 31.9965 54.4919 32.2554 54.2391C32.6707 53.8824 33.2028 53.693 33.7489 53.7076C34.0458 53.697 34.3416 53.7489 34.6174 53.8599C34.8931 53.971 35.1427 54.1388 35.3502 54.3525C35.5658 54.5937 35.7317 54.8754 35.8384 55.1814C35.9451 55.4875 35.9905 55.8117 35.9719 56.1354C35.9953 56.6338 35.9012 57.1307 35.6971 57.5855C35.5176 57.9332 35.2387 58.2189 34.8964 58.4058C34.5453 58.6011 34.1501 58.702 33.7489 58.6988C33.4504 58.711 33.1526 58.6602 32.8749 58.5494C32.5972 58.4387 32.3457 58.2706 32.1367 58.056C31.697 57.544 31.4761 56.8784 31.5217 56.2036ZM32.349 56.2036C32.3119 56.6948 32.4534 57.1828 32.7471 57.5772C32.8717 57.7205 33.0254 57.8353 33.1979 57.9139C33.3704 57.9925 33.5576 58.033 33.7469 58.0328C33.9363 58.0326 34.1234 57.9916 34.2957 57.9125C34.468 57.8335 34.6214 57.7183 34.7457 57.5747C35.0412 57.172 35.1825 56.6757 35.1437 56.1768C35.1781 55.6954 35.0358 55.218 34.7436 54.835C34.6192 54.6917 34.4657 54.5767 34.2934 54.4978C34.1212 54.4189 33.9341 54.378 33.7449 54.3778C33.5556 54.3775 33.3684 54.418 33.196 54.4964C33.0235 54.5749 32.8698 54.6895 32.745 54.8325C32.4518 55.2261 32.311 55.7134 32.349 56.2036Z" fill="#39A7F6"/>
<path d="M40.0287 58.5911V57.8897C39.8681 58.1437 39.6449 58.3516 39.3808 58.4934C39.1168 58.6352 38.8208 58.7061 38.5214 58.6991C38.2514 58.7012 37.984 58.646 37.7366 58.5371C37.5235 58.4521 37.3367 58.3117 37.1953 58.1303C37.07 57.9507 36.9847 57.746 36.9455 57.5302C36.9061 57.2811 36.8897 57.0289 36.8964 56.7769V53.8167H37.7016V56.4646C37.6922 56.7503 37.7086 57.0362 37.7507 57.3188C37.7934 57.5201 37.9079 57.6988 38.0726 57.8211C38.2503 57.9466 38.4638 58.0105 38.6809 58.0031C38.9201 58.0036 39.1551 57.9391 39.3608 57.8164C39.563 57.7026 39.7214 57.5238 39.8105 57.3088C39.9113 57.0085 39.9559 56.6921 39.9421 56.3755V53.8167H40.7473V58.5911H40.0287Z" fill="#39A7F6"/>
<path d="M43.7679 57.8675L43.884 58.5823C43.6842 58.6271 43.4804 58.6512 43.2757 58.6543C43.0411 58.6668 42.8072 58.6188 42.5962 58.515C42.4457 58.4338 42.3261 58.3049 42.256 58.1483C42.1705 57.8376 42.1373 57.5146 42.1578 57.1929V54.4461H41.5673V53.8183H42.1578V52.6343L42.9584 52.1489V53.8167H43.7679V54.4444H42.9588V57.2364C42.9488 57.386 42.9629 57.5362 43.0005 57.6813C43.0287 57.7473 43.0773 57.8025 43.1391 57.8386C43.2239 57.8824 43.3188 57.9026 43.4139 57.8972C43.5324 57.8951 43.6507 57.8852 43.7679 57.8675Z" fill="#39A7F6"/>
<g opacity="0.55">
<path d="M752.509 49H749.678V51.8459H752.509V49Z" fill="#39A7F6"/>
<path d="M756.756 49H753.925V51.8459H756.756V49Z" fill="#39A7F6"/>
<path d="M761.003 49H758.172V51.8459H761.003V49Z" fill="#39A7F6"/>
<path d="M752.509 53.2689H749.678V56.1149H752.509V53.2689Z" fill="#39A7F6"/>
<path d="M756.756 53.2689H753.925V56.1149H756.756V53.2689Z" fill="#39A7F6"/>
<path d="M761.003 53.2689H758.172V56.1149H761.003V53.2689Z" fill="#39A7F6"/>
<path d="M752.509 57.5379H749.678V60.3838H752.509V57.5379Z" fill="#39A7F6"/>
<path d="M756.756 57.5379H753.925V60.3838H756.756V57.5379Z" fill="#39A7F6"/>
<path d="M761.003 57.5379H758.172V60.3838H761.003V57.5379Z" fill="#39A7F6"/>
</g>
<g opacity="0.3">
<path d="M341.577 86.103C337.835 86.5336 334.447 88.196 331.694 90.9599C329.284 93.3833 327.751 96.2974 327.116 99.6622C326.853 101.044 326.884 103.848 327.176 105.21C327.65 107.433 328.437 109.366 329.576 111.078C332.269 115.144 336.242 117.678 341.153 118.449C342.474 118.659 345.368 118.609 346.77 118.359C352.306 117.337 356.401 113.932 358.085 108.925C358.67 107.163 358.801 106.262 358.791 103.768C358.791 102.496 358.74 101.325 358.68 101.164L358.589 100.864H343.573V105.27L348.908 105.3L354.233 105.32L354.162 105.891C354.071 106.642 353.688 107.944 353.345 108.685C351.812 112.01 348.051 114.133 343.664 114.133C339.136 114.133 335.274 111.859 333.146 107.924C331.714 105.26 331.422 101.675 332.39 98.5907C333.691 94.4849 337.22 91.3905 341.446 90.6494C342.696 90.4391 344.753 90.4492 345.893 90.6895C347.728 91.07 349.584 91.9313 350.895 93.0228C351.278 93.3433 351.621 93.5936 351.661 93.5936C351.792 93.5736 354.717 90.5293 354.717 90.4191C354.717 90.2989 353.446 89.2575 352.649 88.7267C349.523 86.6538 345.368 85.6624 341.577 86.103Z" fill="#37A6F5"/>
<path d="M429.896 117.988L434.484 118.028V87.0944H429.845L429.896 117.988Z" fill="#37A6F5"/>
<path d="M370.095 97.6694C369.036 97.7996 368.189 97.9598 367.534 98.1801C363.016 99.6722 360.192 103.768 360.394 108.525C360.626 113.922 364.599 118.078 369.964 118.529C374.421 118.899 378.304 116.877 380.311 113.131C382.106 109.777 381.904 105.32 379.817 102.206C379.171 101.264 377.911 100.003 377.043 99.4519C374.996 98.1501 372.193 97.4291 370.095 97.6694ZM372.717 102.026C374.099 102.446 375.521 103.648 376.176 104.94C377.164 106.872 377.144 109.426 376.146 111.319C373.877 115.605 367.756 115.465 365.638 111.078C364.761 109.246 364.791 106.902 365.698 105.07C367.009 102.446 369.944 101.174 372.717 102.026Z" fill="#37A6F5"/>
<path d="M392.684 97.7195C388.066 98.2001 384.304 101.795 383.558 106.452C383.386 107.513 383.477 109.646 383.75 110.648C384.516 113.552 386.2 115.795 388.671 117.197C390.082 117.998 391.353 118.379 393.078 118.529C397.111 118.879 400.762 117.177 402.92 113.942C404.523 111.549 405.038 108.084 404.221 105.12C403.949 104.119 403.162 102.516 402.587 101.755C400.893 99.542 398.16 98.0399 395.226 97.7195C394.147 97.5993 393.854 97.5993 392.684 97.7195ZM395.659 101.975C397.162 102.396 398.563 103.578 399.269 105.02C400.732 107.984 399.925 111.609 397.424 113.392C394.54 115.425 390.516 114.463 388.872 111.349C387.935 109.586 387.834 107.323 388.59 105.43C389.699 102.676 392.765 101.184 395.659 101.975Z" fill="#37A6F5"/>
<path d="M415.596 97.7195C414.517 97.8296 413.72 98.0599 412.611 98.5707C409.051 100.223 406.752 103.698 406.581 107.724C406.449 110.778 407.498 113.492 409.616 115.585C411.845 117.788 414.779 118.869 417.633 118.539C419.307 118.349 420.517 117.808 421.737 116.706L422.383 116.116V117.267C422.383 119.31 422.11 120.522 421.425 121.593C419.448 124.668 414.577 124.698 412.268 121.653C412.016 121.313 411.724 120.862 411.633 120.642C411.532 120.422 411.411 120.241 411.371 120.241C411.32 120.241 410.403 120.612 409.323 121.053L407.357 121.874L407.77 122.635C409.172 125.218 411.522 127.081 414.265 127.762C415.435 128.052 418.077 128.082 419.216 127.822C423.795 126.781 426.316 123.566 426.709 118.289C426.78 117.457 426.82 113.091 426.82 107.593V98.3103H422.383V100.013L421.657 99.4119C420.043 98.0599 417.905 97.4691 415.596 97.7195ZM418.399 101.935C419.166 102.126 420.194 102.747 420.89 103.428C422.151 104.679 422.756 106.442 422.665 108.565C422.584 110.327 422.08 111.569 420.991 112.741C419.529 114.313 417.32 114.874 415.293 114.193C412.863 113.382 411.371 111.319 411.219 108.575C410.977 104.209 414.507 100.954 418.399 101.935Z" fill="#37A6F5"/>
<path d="M444.992 97.7295C442.037 98.1401 439.224 100.163 437.842 102.867C436.571 105.33 436.279 108.585 437.066 111.309C438.245 115.374 441.624 118.108 445.99 118.549C448.955 118.839 451.708 117.958 454.007 115.965C454.532 115.505 455.661 114.253 455.742 114.043C455.762 113.983 452.878 112.03 452.273 111.699C452.212 111.659 451.94 111.9 451.678 112.24C450.518 113.712 448.935 114.443 446.938 114.443C445.194 114.443 443.963 113.942 442.925 112.831C442.4 112.27 441.775 111.359 441.856 111.289C441.876 111.279 442.511 111.008 443.257 110.708C445.506 109.787 455.913 105.5 455.933 105.48C456.004 105.42 454.824 102.877 454.441 102.216C453.816 101.174 452.222 99.5821 451.123 98.9212C449.348 97.8496 447.14 97.419 444.992 97.7295ZM447.947 101.835C448.461 101.965 449.056 102.266 449.54 102.636C449.933 102.947 450.579 103.798 450.488 103.878C450.458 103.908 448.834 104.599 446.868 105.41C444.911 106.232 442.814 107.103 442.219 107.353C440.968 107.874 440.968 107.874 441.079 106.892C441.261 105.15 442.289 103.538 443.873 102.516C445.123 101.715 446.525 101.475 447.947 101.835Z" fill="#37A6F5"/>
</g>
<path d="M580.067 145H202.806C194.076 145 187 152.113 187 160.887V160.92C187 169.694 194.076 176.807 202.806 176.807H580.067C588.797 176.807 595.873 169.694 595.873 160.92V160.887C595.873 152.113 588.797 145 580.067 145Z" fill="url(#paint1_linear_1948_6658)" stroke="#DBF0FF" stroke-width="1.5" stroke-miterlimit="10"/>
<path d="M576.334 162.984C576.059 162.984 575.786 162.93 575.532 162.824C575.278 162.718 575.047 162.563 574.852 162.367C574.657 162.171 574.503 161.939 574.398 161.684C574.292 161.428 574.238 161.154 574.238 160.877V155.959C574.238 155.682 574.292 155.408 574.398 155.153C574.503 154.897 574.657 154.665 574.852 154.469C575.047 154.273 575.278 154.118 575.532 154.012C575.786 153.907 576.059 153.852 576.334 153.852C576.61 153.852 576.882 153.907 577.136 154.012C577.391 154.118 577.622 154.274 577.816 154.469C578.011 154.665 578.165 154.897 578.271 155.153C578.376 155.408 578.43 155.682 578.43 155.959V160.877C578.43 161.154 578.376 161.428 578.271 161.683C578.165 161.939 578.011 162.171 577.816 162.367C577.622 162.563 577.391 162.718 577.136 162.824C576.882 162.93 576.609 162.984 576.334 162.984Z" fill="#B8E0FC"/>
<path d="M577.035 165.378H575.637V167.955H577.035V165.378Z" fill="#B8E0FC"/>
<path d="M579.835 160.904C579.836 161.601 579.63 162.282 579.245 162.861C578.859 163.441 578.311 163.892 577.67 164.157C577.029 164.423 576.324 164.49 575.644 164.352C574.965 164.214 574.341 163.876 573.853 163.381L572.876 164.363C573.329 164.821 573.868 165.184 574.462 165.431C575.055 165.679 575.692 165.806 576.334 165.805C577.629 165.805 578.87 165.288 579.785 164.368C580.701 163.449 581.216 162.201 581.217 160.9H579.835V160.904Z" fill="#B8E0FC"/>
<path d="M573.853 163.381C573.2 162.724 572.833 161.833 572.833 160.904H571.451C571.451 161.546 571.577 162.182 571.821 162.776C572.066 163.37 572.424 163.909 572.876 164.363L573.853 163.381Z" fill="#B8E0FC"/>
<path d="M206.374 162.232H205.911L205.746 162.073C206.388 161.321 206.714 160.349 206.658 159.359C206.601 158.37 206.165 157.442 205.442 156.769C204.718 156.096 203.764 155.731 202.778 155.75C201.793 155.77 200.853 156.172 200.157 156.873C199.46 157.574 199.061 158.519 199.043 159.509C199.024 160.5 199.389 161.459 200.059 162.185C200.729 162.912 201.653 163.349 202.637 163.405C203.621 163.461 204.589 163.132 205.336 162.486L205.495 162.651V163.116L208.426 166.057L209.3 165.178L206.374 162.232ZM202.856 162.232C202.335 162.232 201.825 162.077 201.391 161.786C200.957 161.494 200.619 161.08 200.419 160.595C200.219 160.111 200.167 159.578 200.269 159.063C200.371 158.549 200.622 158.076 200.991 157.706C201.36 157.335 201.83 157.082 202.342 156.98C202.853 156.878 203.384 156.93 203.866 157.131C204.348 157.331 204.76 157.671 205.05 158.107C205.34 158.544 205.495 159.056 205.495 159.581C205.495 159.929 205.427 160.274 205.295 160.596C205.162 160.918 204.968 161.211 204.723 161.457C204.478 161.703 204.187 161.898 203.867 162.032C203.546 162.165 203.203 162.233 202.856 162.232Z" fill="#B8E0FC"/>
</g>
<defs>
<linearGradient id="paint0_linear_1948_6658" x1="391" y1="0" x2="391" y2="299" gradientUnits="userSpaceOnUse">
<stop stop-color="white"/>
<stop offset="1" stop-color="#CFEBFF"/>
</linearGradient>
<linearGradient id="paint1_linear_1948_6658" x1="269" y1="131" x2="281" y2="231.5" gradientUnits="userSpaceOnUse">
<stop stop-color="#F3FAFF" stop-opacity="0.8"/>
<stop offset="1" stop-color="white"/>
</linearGradient>
<clipPath id="clip0_1948_6658">
<rect width="782" height="424" fill="white"/>
</clipPath>
</defs>
</svg>
