<svg width="126" height="16" viewBox="0 0 126 16" fill="none" xmlns="http://www.w3.org/2000/svg">
<path d="M4.69889 14.6112C4.54558 14.883 4.17011 15.1052 3.86349 15.1052H0.329106C0.0224864 15.1052 -0.0904304 14.8896 0.0784858 14.629L4.55201 7.69522C4.72093 7.43272 4.72093 7.00522 4.55201 6.74366L0.575136 0.581475C0.405302 0.32085 0.520055 0.105225 0.825756 0.105225H4.57772C4.88525 0.105225 5.25246 0.3321 5.39476 0.611475L6.84523 3.45585C6.98753 3.73429 7.21978 3.73429 7.36208 3.45585L8.81255 0.611475C8.95393 0.3321 9.32114 0.105225 9.62776 0.105225H13.1218C13.4284 0.105225 13.544 0.32085 13.377 0.58335L9.63143 6.5271C9.46619 6.7896 9.46435 7.22085 9.63143 7.48335L14.1151 14.6252C14.2803 14.8896 14.1637 15.1052 13.858 15.1052H10.1822C9.87563 15.1052 9.50566 14.8802 9.3597 14.6037L7.36575 10.8283C7.2207 10.5518 6.97651 10.549 6.82412 10.8208L4.69706 14.6112H4.69889ZM36.0962 0.674287C36.0969 0.523429 36.156 0.378974 36.2605 0.272387C36.3651 0.165801 36.5066 0.105717 36.6544 0.105225L42.157 0.105225C43.1328 0.105225 44.7495 0.447412 45.4848 1.13272C46.2201 1.81804 46.7131 2.57647 46.9647 3.40522C47.0565 3.70522 47.1235 4.00241 47.163 4.29585C47.2024 4.58835 47.2226 4.8621 47.2226 5.11897C47.2226 5.37679 47.2024 5.65147 47.163 5.94397C47.1235 6.23835 47.0565 6.5346 46.9647 6.83272C46.726 7.66241 46.2367 8.42179 45.494 9.11648C44.7522 9.80835 43.6396 10.1543 42.1561 10.1543H40.7451C40.5975 10.1545 40.456 10.2144 40.3516 10.3209C40.2472 10.4274 40.1883 10.5717 40.1878 10.7224V14.5343C40.1873 14.6851 40.1285 14.8295 40.0241 14.9361C39.9197 15.0427 39.7782 15.1029 39.6306 15.1033H36.6525C36.5048 15.1026 36.3633 15.0423 36.259 14.9355C36.1546 14.8288 36.0958 14.6842 36.0953 14.5333L36.0962 0.674287ZM40.1887 6.28522C40.1887 6.59835 40.3944 6.85429 40.6459 6.85429C40.8965 6.85429 41.3528 6.82897 41.6576 6.79804C41.6576 6.79804 42.089 6.75397 42.3553 6.55241C42.6197 6.35272 42.7978 6.13991 42.8905 5.90929C42.9419 5.75179 42.9759 5.60179 42.9887 5.45929C43.0034 5.31866 43.0098 5.20335 43.0098 5.11804C43.0098 5.03272 43.0062 4.94741 43.0006 4.8621C42.9929 4.77589 42.9828 4.68992 42.9703 4.60429C42.9043 4.30616 42.739 4.0296 42.4746 3.77929C42.2084 3.52897 41.7512 3.40429 41.1022 3.40429H40.746C40.5983 3.40503 40.4568 3.46535 40.3524 3.57211C40.2481 3.67887 40.1892 3.82343 40.1887 3.97429V6.28522ZM70.9186 0.671475C70.9186 0.359287 71.1683 0.105225 71.4731 0.105225H74.4126C74.7183 0.105225 74.9671 0.35835 74.9671 0.671475V10.9371C74.9671 11.2483 75.2168 11.5024 75.5216 11.5024H77.5183C77.8231 11.5024 78.0719 11.2493 78.0719 10.9362V0.670537C78.0736 0.520331 78.1331 0.376833 78.2375 0.271054C78.3419 0.165274 78.4829 0.105707 78.63 0.105225L81.5677 0.105225C81.8734 0.105225 82.1222 0.35835 82.1222 0.671475V10.9371C82.1222 11.2483 82.3719 11.5024 82.6767 11.5024H84.6734C84.9791 11.5024 85.2279 11.2493 85.2279 10.9362V0.670537C85.2293 0.520578 85.2885 0.37722 85.3926 0.271441C85.4967 0.165662 85.6373 0.105956 85.7842 0.105225L88.7237 0.105225C89.0294 0.105225 89.2791 0.35835 89.2791 0.671475V14.5371C89.2791 14.6875 89.2207 14.8317 89.1168 14.9382C89.0129 15.0447 88.8718 15.1047 88.7246 15.1052H71.4731C71.3261 15.105 71.1852 15.0452 71.0813 14.9391C70.9774 14.833 70.9189 14.6891 70.9186 14.539V0.671475ZM95.5492 12.8552C94.2759 11.3552 93.6397 9.60491 93.6397 7.60522C93.6397 5.61772 94.2667 3.87397 95.5189 2.3646C96.7702 0.858975 98.6356 0.105225 101.114 0.105225H101.313C103.791 0.105225 105.657 0.858975 106.909 2.3646C108.16 3.87397 108.787 5.61772 108.787 7.60522C108.787 9.60491 108.16 11.3477 106.909 12.8346C105.657 14.3224 103.791 15.0724 101.313 15.0846L101.114 15.1052C98.676 15.1052 96.8216 14.3552 95.5492 12.8552ZM101.611 11.6702C101.756 11.6515 101.902 11.614 102.049 11.5577C102.685 11.3824 103.264 10.9877 103.788 10.3727C104.312 9.75679 104.573 8.83522 104.573 7.60522C104.573 6.37522 104.307 5.45366 103.778 4.83772C103.248 4.22366 102.671 3.82804 102.049 3.65179C101.907 3.61294 101.765 3.57948 101.621 3.55147C101.483 3.52335 101.346 3.50929 101.213 3.50929C101.067 3.50929 100.915 3.52522 100.756 3.55241C100.597 3.58054 100.444 3.61991 100.297 3.67429C99.6876 3.86366 99.1286 4.26679 98.6172 4.88085C98.1086 5.49491 97.8534 6.40241 97.8534 7.60616C97.8534 8.80804 98.1086 9.71741 98.6181 10.3315C99.1286 10.9474 99.6886 11.3487 100.298 11.539C100.585 11.6456 100.887 11.7002 101.192 11.7002C101.326 11.7002 101.465 11.6908 101.611 11.6721V11.6702ZM113.148 0.679912C113.148 0.363975 113.401 0.105225 113.711 0.105225H125.436C125.747 0.105225 126 0.363975 126 0.679912V14.5296C126 14.682 125.94 14.8281 125.834 14.9357C125.729 15.0434 125.586 15.104 125.436 15.1043H122.388C122.239 15.1038 122.096 15.043 121.99 14.9352C121.884 14.8274 121.825 14.6813 121.824 14.5287V4.27991C121.824 4.12757 121.764 3.98154 121.659 3.87382C121.553 3.7661 121.41 3.70547 121.261 3.70522H117.887C117.738 3.70572 117.595 3.76639 117.49 3.87403C117.384 3.98168 117.324 4.12756 117.324 4.27991V14.5305C117.324 14.8465 117.278 15.1052 117.223 15.1052H113.712C113.563 15.105 113.42 15.0444 113.314 14.9367C113.208 14.8291 113.148 14.683 113.148 14.5305V0.679912ZM53.3201 12.8552C52.0468 11.3552 51.4107 9.60491 51.4107 7.60522C51.4107 5.61772 52.0377 3.87397 53.2898 2.3646C54.5411 0.858975 56.4065 0.105225 58.8852 0.105225H59.0835C61.5621 0.105225 63.4276 0.858975 64.6798 2.3646C65.931 3.87397 66.558 5.61772 66.558 7.60522C66.558 9.60491 65.931 11.3477 64.6798 12.8346C63.4276 14.3224 61.5621 15.0724 59.0835 15.0846L58.8852 15.1052C56.4469 15.1052 54.5916 14.3552 53.3192 12.8552H53.3201ZM59.3818 11.6702C59.5269 11.6515 59.6729 11.614 59.8197 11.5577C60.4559 11.3824 61.0352 10.9877 61.5594 10.3727C62.0827 9.75679 62.3443 8.83522 62.3443 7.60522C62.3443 6.37522 62.0781 5.45366 61.5493 4.83772C61.0187 4.22366 60.4422 3.82804 59.8197 3.65179C59.6784 3.61294 59.5357 3.57948 59.3919 3.55147C59.2542 3.52335 59.1165 3.50929 58.9843 3.50929C58.8375 3.50929 58.686 3.52522 58.5272 3.55241C58.3683 3.58054 58.215 3.61991 58.0682 3.67429C57.4586 3.86366 56.8995 4.26679 56.3882 4.88085C55.8796 5.49491 55.6244 6.40241 55.6244 7.60616C55.6244 8.80804 55.8796 9.71741 56.3891 10.3315C56.8995 10.9474 57.4595 11.3487 58.0691 11.539C58.3556 11.6456 58.6582 11.7002 58.9632 11.7002C59.0973 11.7002 59.2359 11.6908 59.3818 11.6721V11.6702ZM18.4353 12.8552C17.162 11.3552 16.5258 9.60491 16.5258 7.60522C16.5258 5.61772 17.1528 3.87397 18.405 2.3646C19.6562 0.858975 21.5217 0.105225 24.0003 0.105225H24.1986C26.6773 0.105225 28.5427 0.858975 29.7949 2.3646C31.0461 3.87397 31.6732 5.61772 31.6732 7.60522C31.6732 9.60491 31.0461 11.3477 29.7949 12.8346C28.5427 14.3224 26.6773 15.0724 24.1986 15.0846L24.0003 15.1052C21.5621 15.1052 19.7076 14.3552 18.4353 12.8552ZM24.497 11.6702C24.642 11.6515 24.788 11.614 24.9349 11.5577C25.5711 11.3824 26.1503 10.9877 26.6745 10.3727C27.1978 9.75679 27.4594 8.83522 27.4594 7.60522C27.4594 6.37522 27.1932 5.45366 26.6644 4.83772C26.1338 4.22366 25.5573 3.82804 24.9349 3.65179C24.7935 3.61294 24.6508 3.57948 24.5071 3.55147C24.3694 3.52335 24.2317 3.50929 24.0995 3.50929C23.9526 3.50929 23.8011 3.52522 23.6423 3.55241C23.4835 3.58054 23.3302 3.61991 23.1833 3.67429C22.5737 3.86366 22.0146 4.26679 21.5033 4.88085C20.9947 5.49491 20.7395 6.40241 20.7395 7.60616C20.7395 8.80804 20.9947 9.71741 21.5042 10.3315C22.0146 10.9474 22.5746 11.3487 23.1842 11.539C23.4707 11.6456 23.7734 11.7002 24.0784 11.7002C24.2124 11.7002 24.351 11.6908 24.497 11.6721V11.6702Z" fill="black"/>
</svg>
