<svg width="133" height="27" viewBox="0 0 133 27" fill="none" xmlns="http://www.w3.org/2000/svg">
<path d="M13.2139 13.9274C13.2139 15.9159 12.6235 17.5908 11.4386 18.9467C10.2021 20.3673 8.59531 21.0805 6.62845 21.0805C4.65638 21.0805 3.05485 20.3673 1.81826 18.9467C0.632862 17.5908 0.0380859 15.9159 0.0380859 13.9274C0.0380859 11.9335 0.632862 10.2591 1.81826 8.90812C3.06857 7.50076 4.67537 6.79743 6.62845 6.79743C8.59531 6.79743 10.2021 7.50076 11.4386 8.90812C12.6235 10.2591 13.2139 11.9335 13.2139 13.9274ZM9.29781 13.9274C9.29781 13.0268 9.08257 12.2665 8.65164 11.6519C8.16949 10.9533 7.49476 10.6062 6.62845 10.6062C5.76182 10.6062 5.08735 10.9533 4.60472 11.6519C4.16933 12.2665 3.95387 13.0268 3.95387 13.9274C3.95387 14.8231 4.16933 15.5925 4.60472 16.2256C5.08735 16.9242 5.76182 17.2718 6.62845 17.2718C7.49476 17.2718 8.16949 16.9242 8.65164 16.2256C9.08257 15.5925 9.29781 14.8231 9.29781 13.9274ZM27.373 13.9274C27.373 15.7849 26.839 17.4078 25.7663 18.7962C24.6188 20.3159 23.1387 21.0805 21.3401 21.0805C20.0706 21.0805 18.9937 20.71 18.1131 19.9784C18.1131 20.1469 18.1318 20.5551 18.1694 21.2077C18.2068 21.8637 18.2253 22.3985 18.2253 22.8207C18.2253 25.1527 17.5321 26.3156 16.146 26.3156C15.579 26.3156 15.1156 26.1139 14.7453 25.715C14.3801 25.312 14.1973 24.8279 14.1973 24.2564V9.09119C14.1973 8.53762 14.3847 8.05896 14.7594 7.65596C15.134 7.25712 15.5979 7.05589 16.1506 7.05589C16.984 7.05589 17.5931 7.47242 17.9773 8.30335C18.7969 7.29953 19.9164 6.79743 21.3354 6.79743C23.1387 6.79743 24.6141 7.54754 25.7663 9.05373C26.8343 10.4471 27.373 12.07 27.373 13.9274ZM23.457 13.9274C23.457 13.0268 23.2374 12.2665 22.8064 11.6519C22.3235 10.9533 21.6493 10.6062 20.7827 10.6062C19.9164 10.6062 19.2419 10.9533 18.7593 11.6519C18.3283 12.2665 18.1131 13.0268 18.1131 13.9274C18.1131 14.8231 18.3283 15.5925 18.7593 16.2256C19.2419 16.9242 19.9164 17.2718 20.7827 17.2718C21.6493 17.2718 22.3235 16.9242 22.8064 16.2256C23.2374 15.5925 23.457 14.8231 23.457 13.9274ZM41.621 13.5057C41.621 14.1617 41.4663 14.612 41.1571 14.8658C40.8482 15.1141 40.3658 15.2407 39.7147 15.2407H32.6467C32.6467 15.9913 32.9981 16.568 33.7007 16.971C34.2674 17.2859 34.9606 17.4458 35.7802 17.4458C36.4176 17.4458 37.1808 17.2339 38.0755 16.8171C38.9701 16.3946 39.546 16.1878 39.7947 16.1878C40.2487 16.1878 40.6327 16.3522 40.9512 16.6899C41.2648 17.0233 41.4245 17.4265 41.4245 17.8911C41.4245 18.9647 40.6236 19.8006 39.0212 20.4006C37.799 20.8507 36.5578 21.0805 35.2887 21.0805C33.2466 21.0805 31.5978 20.4006 30.3379 19.0453C29.0777 17.6893 28.4458 15.9866 28.4458 13.9274C28.4458 11.9663 29.1013 10.2919 30.4126 8.89459C31.7193 7.49608 33.345 6.79743 35.2838 6.79743C37.0871 6.79743 38.5952 7.45889 39.804 8.78153C41.012 10.1047 41.621 11.6805 41.621 13.5057ZM37.7055 12.52C37.6866 11.9194 37.4103 11.3755 36.8763 10.8826C36.3423 10.3904 35.7758 10.1468 35.1761 10.1468C34.5579 10.1468 33.9816 10.3904 33.4478 10.8826C32.914 11.3755 32.6467 11.9194 32.6467 12.52H37.7055ZM54.7777 18.7629C54.7777 19.3357 54.5952 19.8185 54.2303 20.222C53.86 20.6211 53.3961 20.8229 52.8295 20.8229C51.4618 20.8229 50.7777 19.7345 50.7777 17.5628C50.7777 17.1452 50.806 16.4887 50.8621 15.5834C50.9231 14.6825 50.9514 14.0213 50.9514 13.6037C50.9514 11.3001 50.2065 10.1468 48.7218 10.1468C47.2368 10.1468 46.4969 11.3001 46.4969 13.6037C46.4969 14.0213 46.5203 14.6825 46.5623 15.5834C46.6093 16.4887 46.6327 17.1452 46.6327 17.5628C46.6327 19.7345 45.9582 20.8229 44.6095 20.8229C44.0425 20.8229 43.579 20.6211 43.2135 20.222C42.8436 19.8185 42.6608 19.3357 42.6608 18.7629V9.08703C42.6608 8.51839 42.8436 8.03611 43.2135 7.64659C43.579 7.25243 44.0474 7.05589 44.6142 7.05589C45.5508 7.05589 46.2017 7.47242 46.567 8.30335C47.1994 7.29953 48.3186 6.79743 49.9207 6.79743C51.4055 6.79743 52.5859 7.19111 53.4525 7.97446C54.3377 8.81478 54.7777 9.96815 54.7777 11.4366V18.7629ZM67.0632 18.3461C67.0632 19.2325 66.4881 19.9358 65.3352 20.4524C64.4223 20.8693 63.4301 21.0836 62.4268 21.0805C60.4541 21.0805 58.8528 20.3673 57.6165 18.9467C56.4312 17.5908 55.8364 15.9159 55.8364 13.9274C55.8364 11.9335 56.4407 10.25 57.6537 8.87072C58.8666 7.48723 60.4541 6.79743 62.4268 6.79743C63.5647 6.79743 64.5436 6.96622 65.3592 7.29953C66.4966 7.74984 67.0632 8.45312 67.0632 9.41022C67.0632 9.89303 66.9137 10.32 66.6136 10.6907C66.3141 11.0565 65.9295 11.2442 65.4619 11.2442C65.1427 11.2442 64.6835 11.1363 64.0845 10.9257C63.4849 10.7094 63.0077 10.6062 62.6566 10.6062C61.724 10.6062 60.9978 10.9393 60.4781 11.6051C59.9956 12.2057 59.7519 12.975 59.7519 13.9274C59.7519 14.8231 59.9674 15.5834 60.4036 16.1978C60.8851 16.9156 61.565 17.2718 62.4311 17.2718C62.8157 17.2718 63.3397 17.1592 64.0095 16.9288C64.6798 16.7045 65.1623 16.5872 65.4619 16.5872C65.8976 16.5872 66.2716 16.7744 66.5908 17.1405C66.9046 17.511 67.0632 17.9093 67.0632 18.3461ZM81.2974 18.7629C81.2974 19.3357 81.1149 19.8185 80.7494 20.222C80.3797 20.6211 79.9115 20.8229 79.3439 20.8229C78.4916 20.8229 77.883 20.4051 77.5175 19.5749C76.6982 20.579 75.5784 21.0805 74.1595 21.0805C72.3427 21.0805 70.8531 20.3159 69.7003 18.7962C68.6512 17.4078 68.1229 15.7849 68.1229 13.9274C68.1229 12.07 68.6512 10.4471 69.7003 9.05373C70.8718 7.54754 72.356 6.79743 74.1595 6.79743C75.5784 6.79743 76.6982 7.29953 77.5175 8.30335C77.883 7.47242 78.4916 7.05589 79.3439 7.05589C79.8971 7.05589 80.361 7.25712 80.7361 7.65596C81.1101 8.05896 81.2974 8.53293 81.2974 9.08703V18.7629ZM77.3819 13.9274C77.3819 13.0268 77.1669 12.2665 76.7355 11.6519C76.2343 10.9533 75.5597 10.6062 74.7123 10.6062C73.8456 10.6062 73.1716 10.9533 72.6885 11.6519C72.2534 12.2665 72.0384 13.0268 72.0384 13.9274C72.0384 14.8231 72.248 15.5925 72.6646 16.2256C73.162 16.9242 73.8456 17.2718 74.7123 17.2718C75.5784 17.2718 76.2529 16.9242 76.7355 16.2256C77.1669 15.5925 77.3819 14.8231 77.3819 13.9274ZM91.2883 8.82831C91.2883 9.66787 90.8808 10.2448 90.0658 10.5589C89.3119 10.8126 88.5618 11.0711 87.8128 11.3376C86.9924 11.8071 86.5854 12.6795 86.5854 13.9462V18.7629C86.5854 19.3357 86.3977 19.8185 86.0332 20.222C85.6624 20.6211 85.1943 20.8229 84.6277 20.8229C84.0569 20.8229 83.5876 20.6211 83.2232 20.222C82.8524 19.8185 82.6699 19.3357 82.6699 18.7629V9.08703C82.6699 8.51839 82.8524 8.03611 83.2179 7.64659C83.5876 7.25243 84.0569 7.05589 84.6234 7.05589C85.5598 7.05589 86.2104 7.47242 86.5764 8.30335C87.4148 7.29953 88.3144 6.79743 89.2838 6.79743C89.836 6.79743 90.3094 6.99872 90.7026 7.39751C91.091 7.80104 91.2883 8.27943 91.2883 8.82831ZM101.504 9.00668C101.504 9.87896 101.162 10.4278 100.483 10.6629C100.15 10.7799 99.4513 10.8407 98.3884 10.8407V18.7629C98.3884 19.3357 98.2011 19.8185 97.8367 20.222C97.4659 20.6211 96.9977 20.8229 96.4312 20.8229C95.879 20.8229 95.4097 20.6211 95.0347 20.222C94.6607 19.8185 94.4734 19.3357 94.4734 18.7629V10.8407C93.6674 10.8407 93.0822 10.7375 92.7125 10.5363C92.2071 10.2547 91.9571 9.74326 91.9571 9.00668C91.9571 8.27059 92.2151 7.76854 92.7348 7.50076C93.0865 7.30369 93.6674 7.20096 94.4734 7.20096V5.52162C94.4734 3.54695 95.1235 2.56204 96.4312 2.56204C97.733 2.56204 98.3884 3.54695 98.3884 5.52162V7.20096C99.4513 7.20096 100.15 7.26181 100.483 7.37881C101.162 7.61334 101.504 8.15801 101.504 9.00668ZM132.961 6.62481C132.951 5.42076 130.729 4.87423 124.978 4.87423C111.485 4.87423 108.061 4.29701 104.398 0.436279C105.939 2.75443 106.782 7.10245 121.045 6.88609C135.925 6.65651 126.847 10.7287 124.206 15.3294C128.969 11.0716 132.947 8.26515 132.961 6.64223V6.62481ZM114 18.9886C113.999 20.1078 113.08 21.0285 111.962 21.0288C110.833 21.0288 109.921 20.1146 109.921 18.9886C109.921 18.9881 109.921 18.9875 109.921 18.987C109.921 17.866 110.841 16.9434 111.961 16.9434C111.962 16.9434 111.962 16.9434 111.962 16.9434C113.088 16.9434 114 17.8579 114 18.9886ZM123.292 18.9886C123.292 20.1078 122.373 21.0285 121.255 21.0288C120.127 21.0288 119.214 20.1146 119.214 18.9886C119.214 18.9881 119.214 18.9875 119.214 18.987C119.214 17.866 120.134 16.9434 121.254 16.9434C121.254 16.9434 121.254 16.9434 121.255 16.9434C122.38 16.9434 123.292 17.8579 123.292 18.9886Z" fill="url(#paint0_linear_1817_3432)"/>
<defs>
<linearGradient id="paint0_linear_1817_3432" x1="66.4998" y1="20.9079" x2="66.4998" y2="0.436333" gradientUnits="userSpaceOnUse">
<stop stop-color="#04B6F0"/>
<stop offset="1" stop-color="#3ECAF0"/>
</linearGradient>
</defs>
</svg>
