<svg width="59" height="59" viewBox="0 0 59 59" fill="none" xmlns="http://www.w3.org/2000/svg">
<rect x="0.666504" y="0.105225" width="58" height="58" rx="8" fill="#F6FAFF"/>
<path d="M38.9755 28.3438H41.7056C42.1748 28.3438 42.5552 27.9634 42.5552 27.4941V19.3039C42.5552 18.8347 42.1748 18.4543 41.7056 18.4543H34.3649V16.5738C34.3649 14.6 32.7591 12.9941 30.7853 12.9941C28.8114 12.9941 27.2056 14.6 27.2056 16.5738V18.4543H19.8649C19.3957 18.4543 19.0153 18.8347 19.0153 19.3039V26.6445H17.1349C15.1611 26.6445 13.5552 28.2504 13.5552 30.2242C13.5552 32.198 15.1611 33.8039 17.1349 33.8039H19.0153V41.1445C19.0153 41.6137 19.3957 41.9941 19.8649 41.9941H28.0552C28.5244 41.9941 28.9048 41.6137 28.9048 41.1445V38.4145C28.9048 37.3775 29.7484 36.534 30.7853 36.534C31.8221 36.534 32.6657 37.3776 32.6657 38.4145V41.1445C32.6657 41.6137 33.0461 41.9941 33.5153 41.9941H41.7056C42.1748 41.9941 42.5552 41.6137 42.5552 41.1445V32.9543C42.5552 32.4851 42.1748 32.1047 41.7056 32.1047H38.9755C37.9386 32.1047 37.095 31.2611 37.095 30.2242C37.095 29.1874 37.9386 28.3438 38.9755 28.3438ZM38.9755 33.8039H40.856V40.2949H34.3649V38.4145C34.3649 36.4406 32.7591 34.8348 30.7853 34.8348C28.8114 34.8348 27.2056 36.4406 27.2056 38.4145V40.2949H20.7146V32.9543C20.7146 32.4851 20.3342 32.1047 19.8649 32.1047H17.1349C16.0979 32.1047 15.2544 31.2611 15.2544 30.2242C15.2544 29.1874 16.098 28.3438 17.1349 28.3438H19.8649C20.3342 28.3438 20.7146 27.9634 20.7146 27.4941V20.1535H28.0552C28.5244 20.1535 28.9048 19.7731 28.9048 19.3039V16.5738C28.9048 15.5369 29.7484 14.6934 30.7853 14.6934C31.8221 14.6934 32.6657 15.537 32.6657 16.5738V19.3039C32.6657 19.7731 33.0461 20.1535 33.5153 20.1535H40.856V26.6445H38.9755C37.0016 26.6445 35.3958 28.2504 35.3958 30.2242C35.3958 32.198 37.0016 33.8039 38.9755 33.8039Z" fill="url(#paint0_linear_1730_1844)" stroke="url(#paint1_linear_1730_1844)"/>
<defs>
<linearGradient id="paint0_linear_1730_1844" x1="43.5672" y1="43.6486" x2="12.9585" y2="43.0401" gradientUnits="userSpaceOnUse">
<stop stop-color="#1A93EA"/>
<stop offset="1" stop-color="#51B7FF"/>
</linearGradient>
<linearGradient id="paint1_linear_1730_1844" x1="43.5672" y1="43.6486" x2="12.9585" y2="43.0401" gradientUnits="userSpaceOnUse">
<stop stop-color="#1A93EA"/>
<stop offset="1" stop-color="#51B7FF"/>
</linearGradient>
</defs>
</svg>
