<svg width="59" height="59" viewBox="0 0 59 59" fill="none" xmlns="http://www.w3.org/2000/svg">
<rect x="0.666504" y="0.105225" width="58" height="58" rx="8" fill="#F6FAFF"/>
<path d="M19.033 38.4428C18.185 38.2977 17.4151 37.8524 16.8599 37.1859C16.3047 36.5195 16 35.6749 16 34.8021V32.5522C16 31.573 16.3833 30.6339 17.0655 29.9415C17.7477 29.249 18.673 28.8601 19.6378 28.86H19.88C20.267 23.9016 24.3546 20 29.34 20C34.3254 20 38.413 23.9016 38.8 28.86H39.0422C40.007 28.8601 40.9323 29.249 41.6145 29.9415C42.2967 30.6339 42.68 31.573 42.68 32.5522V34.8021C42.68 35.7813 42.2967 36.7204 41.6145 37.4128C40.9323 38.1052 40.007 38.4942 39.0422 38.4942H37.9687C37.5235 38.4942 37.1626 38.1279 37.1626 37.6761V29.6316C37.1626 25.2469 33.6603 21.6924 29.34 21.6924C25.0197 21.6924 21.5174 25.2469 21.5174 29.6316V37.6761C21.5174 37.9951 21.3375 38.2715 21.075 38.4064C20.3523 38.6609 19.2316 38.4768 19.033 38.4428Z" fill="url(#paint0_linear_1730_1886)" stroke="url(#paint1_linear_1730_1886)"/>
<defs>
<linearGradient id="paint0_linear_1730_1886" x1="43.611" y1="39.5967" x2="15.4629" y2="38.7914" gradientUnits="userSpaceOnUse">
<stop stop-color="#1A93EA"/>
<stop offset="1" stop-color="#51B7FF"/>
</linearGradient>
<linearGradient id="paint1_linear_1730_1886" x1="43.611" y1="39.5967" x2="15.4629" y2="38.7914" gradientUnits="userSpaceOnUse">
<stop stop-color="#1A93EA"/>
<stop offset="1" stop-color="#51B7FF"/>
</linearGradient>
</defs>
</svg>
