<svg width="20" height="21" viewBox="0 0 20 21" fill="none" xmlns="http://www.w3.org/2000/svg">
<path d="M16.633 5.40538C16.1772 4.97697 15.4682 5.01055 15.0516 5.48409L8.21956 13.2615L4.9189 9.79255C4.4832 9.33634 3.77537 9.32939 3.33521 9.77865C2.89392 10.2267 2.8872 10.9597 3.32177 11.4159L7.45345 15.7578C7.55761 15.8675 7.68189 15.9546 7.819 16.014C7.95611 16.0735 8.1033 16.1041 8.25198 16.104C8.2587 16.104 8.26656 16.104 8.27328 16.1052C8.42579 16.102 8.57608 16.0667 8.71493 16.0014C8.85378 15.9361 8.97828 15.8422 9.08079 15.7254L16.7091 7.04148C17.1247 6.56671 17.0911 5.83496 16.633 5.40538Z" fill="#1188F0"/>
</svg>
