<svg width="58" height="59" viewBox="0 0 58 59" fill="none" xmlns="http://www.w3.org/2000/svg">
<rect y="0.105225" width="58" height="58" rx="8" fill="#F6FAFF"/>
<path d="M41.2134 19.9662C40.3741 19.2132 39.0687 19.2722 38.3016 20.1045L25.722 33.7739L19.6445 27.677C18.8423 26.8752 17.539 26.8629 16.7285 27.6526C15.916 28.4401 15.9036 29.7283 16.7038 30.5301L24.3113 38.1614C24.5031 38.3542 24.7319 38.5073 24.9844 38.6117C25.2369 38.7162 25.5079 38.77 25.7816 38.7699C25.794 38.7699 25.8085 38.7699 25.8209 38.7719C26.1017 38.7664 26.3784 38.7043 26.6341 38.5896C26.8897 38.4748 27.119 38.3097 27.3077 38.1045L41.3535 22.8418C42.1188 22.0073 42.0569 20.7212 41.2134 19.9662Z" fill="url(#paint0_linear_1730_1928)"/>
<defs>
<linearGradient id="paint0_linear_1730_1928" x1="42.7886" y1="39.8749" x2="15.5893" y2="39.154" gradientUnits="userSpaceOnUse">
<stop stop-color="#1A93EA"/>
<stop offset="1" stop-color="#51B7FF"/>
</linearGradient>
</defs>
</svg>
